# xmcd CD database file generated by Grip 2.96
# 
# Track frame offsets:
#       150
#       16888
#       32121
#       50859
#       68557
#       85895
#       100750
#       118533
#       138861
#       154754
#       173562
#       190294
#       210608
#       227558
#       246615
# 
# Disc length: 3487 seconds
# 
# Revision: 0
# Processed by: cddbd v1.5PL3 Copyright (c) Steve Scherf et al.
# Submitted via: Grip 2.96
# 
DISCID=c60d9d0f
DTITLE=fisk and christian - little stars of eden
DYEAR=1900
DGENRE=
TTITLE0=alright
TTITLE1=lara
TTITLE2=el dorado
TTITLE3=hearts of the very young
TTITLE4=one wish
TTITLE5=dollys paradise
TTITLE6=only one for me
TTITLE7=perfect day
TTITLE8=station of love
TTITLE9=same heartache
TTITLE10=going out of style
TTITLE11=jealousy
TTITLE12=waiting for you
TTITLE13=kiss it goodbye
TTITLE14=rock n footy
EXTD=
EXTT0=
EXTT1=
EXTT2=
EXTT3=
EXTT4=
EXTT5=
EXTT6=
EXTT7=
EXTT8=
EXTT9=
EXTT10=
EXTT11=
EXTT12=
EXTT13=
EXTT14=
PLAYORDER=
